<svg width="73.889990234375px" height="133.68740234375px" xmlns="http://www.w3.org/2000/svg" viewBox="213.0550048828125 8.156298828125003 73.889990234375 133.68740234375" style="background: rgba(0, 0, 0, 0);" preserveAspectRatio="xMidYMid"><defs><filter id="editing-extrusion" x="-100%" y="-100%" width="300%" height="300%"><feFlood result="color1" flood-color="#ffd700"></feFlood><feConvolveMatrix order="2,2" divisor="1" kernelMatrix="1 0 0 1" in="SourceAlpha" result="extrude"></feConvolveMatrix><feComposite in="color1" in2="extrude" result="comp-extrude" operator="in"></feComposite><feOffset dx="1" dy="1" in="comp-extrude" result="offset-extrude"></feOffset><feMerge><feMergeNode in="offset-extrude"></feMergeNode><feMergeNode in="SourceGraphic"></feMergeNode></feMerge></filter></defs><g filter="url(#editing-extrusion)"><g transform="translate(227.6299991607666, 99.05999946594238)"><path d="M11.20 1.66L11.20 1.66L11.20 1.66Q7.42 1.66 5.63-0.74L5.63-0.74L5.63-0.74Q3.84-3.14 3.84-7.90L3.84-7.90L3.84-7.90Q3.84-12.67 7.87-34.94L7.87-34.94L4.48-41.79L4.48-41.79Q11.71-46.46 17.66-46.46L17.66-46.46L17.66-46.46Q21.44-46.46 22.34-42.88L22.34-42.88L22.34-42.88Q29.57-43.07 40.38-46.14L40.38-46.14L40.38-46.14Q40.90-44.03 40.90-41.98L40.90-41.98L40.90-41.98Q40.90-36.80 37.47-34.18L37.47-34.18L37.47-34.18Q34.05-31.55 28.67-31.55L28.67-31.55L28.67-31.55Q25.02-31.55 21.50-33.09L21.50-33.09L21.50-33.09Q20.99-30.21 19.71-23.68L19.71-23.68L19.71-23.68Q22.08-23.23 23.74-23.23L23.74-23.23L23.74-23.23Q26.37-23.74 29.50-24.70L29.50-24.70L29.50-24.70Q29.82-23.62 29.82-21.15L29.82-21.15L29.82-21.15Q29.82-18.69 27.84-17.22L27.84-17.22L27.84-17.22Q25.86-15.74 23.39-15.74L23.39-15.74L23.39-15.74Q20.93-15.74 18.37-16.32L18.37-16.32L18.37-16.32Q17.66-12.29 17.66-8.70L17.66-8.70L28.03-8.70L28.03-8.70Q32.90-9.41 37.82-11.20L37.82-11.20L37.82-11.20Q38.21-10.05 38.21-8.06L38.21-8.06L38.21-8.06Q38.21-4.29 36-1.34L36-1.34L36-1.34Q33.79 1.60 29.89 1.60L29.89 1.60L29.89 1.60Q27.84 1.60 23.90 0.80L23.90 0.80L23.90 0.80Q19.97 0 18.05-0.19L18.05-0.19L18.05-0.19Q14.98 1.66 11.20 1.66Z" fill="#0b509c"></path></g></g><style>text {
  font-size: 64px;
  font-family: Arial Black;
  dominant-baseline: central;
  text-anchor: middle;
}</style></svg>